<mxfile host="app.diagrams.net" modified="2023-06-15T07:47:48.011Z" agent="Mozilla/5.0 (Windows NT 10.0; Win64; x64) AppleWebKit/537.36 (KHTML, like Gecko) Chrome/114.0.0.0 Safari/537.36 Edg/114.0.1823.43" etag="zNkusrrCfB3mYQmszpvz" version="21.3.8" type="github">
  <diagram name="Page-1" id="DdxZA5GexF_VP8a_7yuy">
    <mxGraphModel dx="1050" dy="573" grid="1" gridSize="10" guides="1" tooltips="1" connect="1" arrows="1" fold="1" page="1" pageScale="1" pageWidth="827" pageHeight="1169" math="0" shadow="0">
      <root>
        <mxCell id="0" />
        <mxCell id="1" parent="0" />
        <mxCell id="scGVtARDGO441qJ0OcvR-1" value="" style="rounded=1;whiteSpace=wrap;html=1;fillColor=#e1d5e7;fillStyle=auto;opacity=40;strokeColor=#9673A6;gradientColor=none;strokeWidth=5;perimeterSpacing=0;arcSize=5;" parent="1" vertex="1">
          <mxGeometry x="114" y="50" width="600" height="210" as="geometry" />
        </mxCell>
        <mxCell id="scGVtARDGO441qJ0OcvR-5" value="" style="rounded=1;whiteSpace=wrap;html=1;fillColor=#d5e8d4;fillStyle=auto;opacity=40;strokeColor=#82B366;strokeWidth=5;perimeterSpacing=0;arcSize=5;" parent="1" vertex="1">
          <mxGeometry x="114" y="280" width="600" height="210" as="geometry" />
        </mxCell>
        <mxCell id="scGVtARDGO441qJ0OcvR-36" value="" style="rounded=1;whiteSpace=wrap;html=1;fillColor=#fff2cc;fillStyle=auto;opacity=40;strokeColor=#d6b656;strokeWidth=5;perimeterSpacing=0;arcSize=5;" parent="1" vertex="1">
          <mxGeometry x="114" y="510" width="600" height="210" as="geometry" />
        </mxCell>
        <mxCell id="scGVtARDGO441qJ0OcvR-3" value="Client-side" style="text;html=1;strokeColor=none;fillColor=none;align=center;verticalAlign=middle;whiteSpace=wrap;rounded=0;fontFamily=Helvetica;fontStyle=1;fontColor=#9673a6;fontSize=17;" parent="1" vertex="1">
          <mxGeometry x="114" y="50" width="100" height="30" as="geometry" />
        </mxCell>
        <mxCell id="scGVtARDGO441qJ0OcvR-12" style="edgeStyle=orthogonalEdgeStyle;rounded=0;orthogonalLoop=1;jettySize=auto;html=1;exitX=0;exitY=0.5;exitDx=0;exitDy=0;entryX=0.5;entryY=0;entryDx=0;entryDy=0;" parent="1" source="scGVtARDGO441qJ0OcvR-4" target="scGVtARDGO441qJ0OcvR-7" edge="1">
          <mxGeometry relative="1" as="geometry" />
        </mxCell>
        <mxCell id="scGVtARDGO441qJ0OcvR-16" value="Account details" style="edgeLabel;html=1;align=center;verticalAlign=middle;resizable=0;points=[];" parent="scGVtARDGO441qJ0OcvR-12" vertex="1" connectable="0">
          <mxGeometry x="-0.1144" relative="1" as="geometry">
            <mxPoint as="offset" />
          </mxGeometry>
        </mxCell>
        <mxCell id="scGVtARDGO441qJ0OcvR-27" style="edgeStyle=orthogonalEdgeStyle;rounded=0;orthogonalLoop=1;jettySize=auto;html=1;exitX=0;exitY=0.75;exitDx=0;exitDy=0;entryX=0.5;entryY=0;entryDx=0;entryDy=0;" parent="1" source="scGVtARDGO441qJ0OcvR-4" target="scGVtARDGO441qJ0OcvR-26" edge="1">
          <mxGeometry relative="1" as="geometry" />
        </mxCell>
        <mxCell id="scGVtARDGO441qJ0OcvR-28" value="Filters" style="edgeLabel;html=1;align=center;verticalAlign=middle;resizable=0;points=[];" parent="scGVtARDGO441qJ0OcvR-27" vertex="1" connectable="0">
          <mxGeometry x="0.1825" y="1" relative="1" as="geometry">
            <mxPoint as="offset" />
          </mxGeometry>
        </mxCell>
        <mxCell id="r--svfkuLO-Cxs6bafeG-12" style="edgeStyle=orthogonalEdgeStyle;rounded=0;orthogonalLoop=1;jettySize=auto;html=1;exitX=0.5;exitY=1;exitDx=0;exitDy=0;entryX=0.5;entryY=0;entryDx=0;entryDy=0;" edge="1" parent="1" source="scGVtARDGO441qJ0OcvR-4" target="scGVtARDGO441qJ0OcvR-35">
          <mxGeometry relative="1" as="geometry" />
        </mxCell>
        <mxCell id="scGVtARDGO441qJ0OcvR-4" value="&lt;b&gt;USER&lt;/b&gt;" style="rounded=1;whiteSpace=wrap;html=1;" parent="1" vertex="1">
          <mxGeometry x="354" y="60" width="96" height="50" as="geometry" />
        </mxCell>
        <mxCell id="scGVtARDGO441qJ0OcvR-6" value="Processing" style="text;html=1;strokeColor=none;fillColor=none;align=center;verticalAlign=middle;whiteSpace=wrap;rounded=0;fontFamily=Helvetica;fontStyle=1;fontColor=#82b366;fontSize=17;" parent="1" vertex="1">
          <mxGeometry x="120" y="280" width="100" height="30" as="geometry" />
        </mxCell>
        <mxCell id="scGVtARDGO441qJ0OcvR-20" style="edgeStyle=orthogonalEdgeStyle;rounded=0;orthogonalLoop=1;jettySize=auto;html=1;exitX=0.25;exitY=1;exitDx=0;exitDy=0;" parent="1" source="scGVtARDGO441qJ0OcvR-7" target="scGVtARDGO441qJ0OcvR-18" edge="1">
          <mxGeometry relative="1" as="geometry" />
        </mxCell>
        <mxCell id="scGVtARDGO441qJ0OcvR-22" value="Login details" style="edgeLabel;html=1;align=center;verticalAlign=middle;resizable=0;points=[];rotation=270;" parent="scGVtARDGO441qJ0OcvR-20" vertex="1" connectable="0">
          <mxGeometry x="-0.2468" y="-1" relative="1" as="geometry">
            <mxPoint as="offset" />
          </mxGeometry>
        </mxCell>
        <mxCell id="scGVtARDGO441qJ0OcvR-21" style="edgeStyle=orthogonalEdgeStyle;rounded=0;orthogonalLoop=1;jettySize=auto;html=1;exitX=0.75;exitY=1;exitDx=0;exitDy=0;entryX=0;entryY=0.5;entryDx=0;entryDy=0;" parent="1" source="scGVtARDGO441qJ0OcvR-7" target="scGVtARDGO441qJ0OcvR-19" edge="1">
          <mxGeometry relative="1" as="geometry" />
        </mxCell>
        <mxCell id="scGVtARDGO441qJ0OcvR-23" value="Sign-up details" style="edgeLabel;html=1;align=center;verticalAlign=middle;resizable=0;points=[];rotation=270;" parent="scGVtARDGO441qJ0OcvR-21" vertex="1" connectable="0">
          <mxGeometry x="-0.4783" y="1" relative="1" as="geometry">
            <mxPoint x="-3" y="16" as="offset" />
          </mxGeometry>
        </mxCell>
        <mxCell id="scGVtARDGO441qJ0OcvR-7" value="Verification page" style="rounded=1;whiteSpace=wrap;html=1;" parent="1" vertex="1">
          <mxGeometry x="150" y="130" width="96" height="50" as="geometry" />
        </mxCell>
        <mxCell id="scGVtARDGO441qJ0OcvR-13" style="edgeStyle=orthogonalEdgeStyle;rounded=0;orthogonalLoop=1;jettySize=auto;html=1;exitX=0;exitY=0.5;exitDx=0;exitDy=0;" parent="1" source="scGVtARDGO441qJ0OcvR-8" target="scGVtARDGO441qJ0OcvR-4" edge="1">
          <mxGeometry relative="1" as="geometry" />
        </mxCell>
        <mxCell id="scGVtARDGO441qJ0OcvR-17" value="Verification link" style="edgeLabel;html=1;align=center;verticalAlign=middle;resizable=0;points=[];" parent="scGVtARDGO441qJ0OcvR-13" vertex="1" connectable="0">
          <mxGeometry x="-0.16" y="1" relative="1" as="geometry">
            <mxPoint as="offset" />
          </mxGeometry>
        </mxCell>
        <mxCell id="scGVtARDGO441qJ0OcvR-8" value="Email address" style="rounded=1;whiteSpace=wrap;html=1;" parent="1" vertex="1">
          <mxGeometry x="600" y="60" width="96" height="50" as="geometry" />
        </mxCell>
        <mxCell id="r--svfkuLO-Cxs6bafeG-15" style="edgeStyle=orthogonalEdgeStyle;rounded=0;orthogonalLoop=1;jettySize=auto;html=1;exitX=0;exitY=1;exitDx=0;exitDy=0;entryX=0.25;entryY=0;entryDx=0;entryDy=0;" edge="1" parent="1" source="scGVtARDGO441qJ0OcvR-18" target="r--svfkuLO-Cxs6bafeG-1">
          <mxGeometry relative="1" as="geometry" />
        </mxCell>
        <mxCell id="r--svfkuLO-Cxs6bafeG-17" value="SQL SELECT" style="edgeLabel;html=1;align=center;verticalAlign=middle;resizable=0;points=[];rotation=270;" vertex="1" connectable="0" parent="r--svfkuLO-Cxs6bafeG-15">
          <mxGeometry x="-0.4013" relative="1" as="geometry">
            <mxPoint y="-10" as="offset" />
          </mxGeometry>
        </mxCell>
        <mxCell id="scGVtARDGO441qJ0OcvR-18" value="Login program" style="ellipse;whiteSpace=wrap;html=1;aspect=fixed;" parent="1" vertex="1">
          <mxGeometry x="135" y="330" width="70" height="70" as="geometry" />
        </mxCell>
        <mxCell id="scGVtARDGO441qJ0OcvR-24" style="edgeStyle=orthogonalEdgeStyle;rounded=0;orthogonalLoop=1;jettySize=auto;html=1;exitX=0.5;exitY=0;exitDx=0;exitDy=0;entryX=0.5;entryY=1;entryDx=0;entryDy=0;" parent="1" source="scGVtARDGO441qJ0OcvR-19" target="scGVtARDGO441qJ0OcvR-8" edge="1">
          <mxGeometry relative="1" as="geometry">
            <Array as="points">
              <mxPoint x="275" y="270" />
              <mxPoint x="648" y="270" />
            </Array>
          </mxGeometry>
        </mxCell>
        <mxCell id="scGVtARDGO441qJ0OcvR-25" value="Verification link" style="edgeLabel;html=1;align=center;verticalAlign=middle;resizable=0;points=[];" parent="scGVtARDGO441qJ0OcvR-24" vertex="1" connectable="0">
          <mxGeometry x="-0.2648" y="-2" relative="1" as="geometry">
            <mxPoint as="offset" />
          </mxGeometry>
        </mxCell>
        <mxCell id="scGVtARDGO441qJ0OcvR-19" value="Sign-up program" style="ellipse;whiteSpace=wrap;html=1;aspect=fixed;" parent="1" vertex="1">
          <mxGeometry x="240" y="330" width="70" height="70" as="geometry" />
        </mxCell>
        <mxCell id="scGVtARDGO441qJ0OcvR-38" style="edgeStyle=orthogonalEdgeStyle;rounded=0;orthogonalLoop=1;jettySize=auto;html=1;exitX=0.25;exitY=1;exitDx=0;exitDy=0;entryX=0;entryY=0.5;entryDx=0;entryDy=0;" parent="1" source="scGVtARDGO441qJ0OcvR-26" target="scGVtARDGO441qJ0OcvR-31" edge="1">
          <mxGeometry relative="1" as="geometry">
            <Array as="points">
              <mxPoint x="282" y="250" />
              <mxPoint x="320" y="250" />
              <mxPoint x="320" y="445" />
            </Array>
          </mxGeometry>
        </mxCell>
        <mxCell id="r--svfkuLO-Cxs6bafeG-13" value="Filters" style="edgeLabel;html=1;align=center;verticalAlign=middle;resizable=0;points=[];rotation=270;" vertex="1" connectable="0" parent="scGVtARDGO441qJ0OcvR-38">
          <mxGeometry x="0.0011" relative="1" as="geometry">
            <mxPoint as="offset" />
          </mxGeometry>
        </mxCell>
        <mxCell id="scGVtARDGO441qJ0OcvR-26" value="Database browser" style="rounded=1;whiteSpace=wrap;html=1;" parent="1" vertex="1">
          <mxGeometry x="258" y="130" width="96" height="50" as="geometry" />
        </mxCell>
        <mxCell id="r--svfkuLO-Cxs6bafeG-8" style="edgeStyle=orthogonalEdgeStyle;rounded=0;orthogonalLoop=1;jettySize=auto;html=1;exitX=0;exitY=1;exitDx=0;exitDy=0;entryX=0.25;entryY=0;entryDx=0;entryDy=0;" edge="1" parent="1" source="scGVtARDGO441qJ0OcvR-31" target="r--svfkuLO-Cxs6bafeG-2">
          <mxGeometry relative="1" as="geometry" />
        </mxCell>
        <mxCell id="r--svfkuLO-Cxs6bafeG-9" value="SQL SELECT" style="edgeLabel;html=1;align=center;verticalAlign=middle;resizable=0;points=[];rotation=270;" vertex="1" connectable="0" parent="r--svfkuLO-Cxs6bafeG-8">
          <mxGeometry x="-0.27" y="-1" relative="1" as="geometry">
            <mxPoint x="-16" as="offset" />
          </mxGeometry>
        </mxCell>
        <mxCell id="r--svfkuLO-Cxs6bafeG-11" style="edgeStyle=orthogonalEdgeStyle;rounded=0;orthogonalLoop=1;jettySize=auto;html=1;exitX=0.5;exitY=0;exitDx=0;exitDy=0;entryX=0.75;entryY=1;entryDx=0;entryDy=0;" edge="1" parent="1" source="scGVtARDGO441qJ0OcvR-31" target="scGVtARDGO441qJ0OcvR-26">
          <mxGeometry relative="1" as="geometry">
            <Array as="points">
              <mxPoint x="402" y="390" />
              <mxPoint x="370" y="390" />
              <mxPoint x="370" y="250" />
              <mxPoint x="330" y="250" />
            </Array>
          </mxGeometry>
        </mxCell>
        <mxCell id="r--svfkuLO-Cxs6bafeG-14" value="Matches" style="edgeLabel;html=1;align=center;verticalAlign=middle;resizable=0;points=[];rotation=270;" vertex="1" connectable="0" parent="r--svfkuLO-Cxs6bafeG-11">
          <mxGeometry x="-0.1073" relative="1" as="geometry">
            <mxPoint x="-3" y="13" as="offset" />
          </mxGeometry>
        </mxCell>
        <mxCell id="scGVtARDGO441qJ0OcvR-31" value="Retrieve contact" style="ellipse;whiteSpace=wrap;html=1;aspect=fixed;" parent="1" vertex="1">
          <mxGeometry x="367" y="410" width="70" height="70" as="geometry" />
        </mxCell>
        <mxCell id="scGVtARDGO441qJ0OcvR-35" value="Add contact&lt;br&gt;page" style="rounded=1;whiteSpace=wrap;html=1;" parent="1" vertex="1">
          <mxGeometry x="354" y="190" width="96" height="50" as="geometry" />
        </mxCell>
        <mxCell id="scGVtARDGO441qJ0OcvR-37" value="Database" style="text;html=1;strokeColor=none;fillColor=none;align=center;verticalAlign=middle;whiteSpace=wrap;rounded=0;fontFamily=Helvetica;fontStyle=1;fontColor=#d6b656;fontSize=17;" parent="1" vertex="1">
          <mxGeometry x="114" y="510" width="100" height="30" as="geometry" />
        </mxCell>
        <mxCell id="r--svfkuLO-Cxs6bafeG-16" style="edgeStyle=orthogonalEdgeStyle;rounded=0;orthogonalLoop=1;jettySize=auto;html=1;exitX=0.75;exitY=0;exitDx=0;exitDy=0;entryX=1;entryY=1;entryDx=0;entryDy=0;" edge="1" parent="1" source="r--svfkuLO-Cxs6bafeG-1" target="scGVtARDGO441qJ0OcvR-18">
          <mxGeometry relative="1" as="geometry" />
        </mxCell>
        <mxCell id="r--svfkuLO-Cxs6bafeG-18" value="Matching entry" style="edgeLabel;html=1;align=center;verticalAlign=middle;resizable=0;points=[];rotation=270;" vertex="1" connectable="0" parent="r--svfkuLO-Cxs6bafeG-16">
          <mxGeometry x="0.4372" y="1" relative="1" as="geometry">
            <mxPoint y="-9" as="offset" />
          </mxGeometry>
        </mxCell>
        <mxCell id="r--svfkuLO-Cxs6bafeG-1" value="User table" style="shape=process;whiteSpace=wrap;html=1;backgroundOutline=1;" vertex="1" parent="1">
          <mxGeometry x="150" y="555" width="120" height="60" as="geometry" />
        </mxCell>
        <mxCell id="r--svfkuLO-Cxs6bafeG-7" style="edgeStyle=orthogonalEdgeStyle;rounded=0;orthogonalLoop=1;jettySize=auto;html=1;exitX=0.75;exitY=0;exitDx=0;exitDy=0;entryX=1;entryY=1;entryDx=0;entryDy=0;" edge="1" parent="1" source="r--svfkuLO-Cxs6bafeG-2" target="scGVtARDGO441qJ0OcvR-31">
          <mxGeometry relative="1" as="geometry" />
        </mxCell>
        <mxCell id="r--svfkuLO-Cxs6bafeG-10" value="Matching entries" style="edgeLabel;html=1;align=center;verticalAlign=middle;resizable=0;points=[];rotation=90;" vertex="1" connectable="0" parent="r--svfkuLO-Cxs6bafeG-7">
          <mxGeometry x="0.2391" relative="1" as="geometry">
            <mxPoint x="18" as="offset" />
          </mxGeometry>
        </mxCell>
        <mxCell id="r--svfkuLO-Cxs6bafeG-2" value="Contact table" style="shape=process;whiteSpace=wrap;html=1;backgroundOutline=1;" vertex="1" parent="1">
          <mxGeometry x="342" y="555" width="120" height="60" as="geometry" />
        </mxCell>
      </root>
    </mxGraphModel>
  </diagram>
</mxfile>
